<svg width="640px" height="480px" xmlns="http://www.w3.org/2000/svg">
	<rect x="0" y="0" width="84" height="20" style="fill:rgb(26,31,16);"/>
	<rect x="84" y="0" width="101" height="20" style="fill:rgb(19,16,8);"/>
	<rect x="185" y="0" width="115" height="20" style="fill:rgb(31,16,6);"/>
	<rect x="300" y="0" width="116" height="20" style="fill:rgb(32,16,3);"/>
	<rect x="416" y="0" width="84" height="20" style="fill:rgb(135,120,98);"/>
	<rect x="500" y="0" width="101" height="20" style="fill:rgb(107,64,87);"/>
	<rect x="601" y="0" width="39" height="20" style="fill:rgb(73,5,5);"/>
	<rect x="0" y="30" width="76" height="20" style="fill:rgb(28,34,18);"/>
	<rect x="76" y="30" width="116" height="20" style="fill:rgb(20,18,9);"/>
	<rect x="192" y="30" width="84" height="20" style="fill:rgb(32,21,8);"/>
	<rect x="276" y="30" width="101" height="20" style="fill:rgb(42,11,2);"/>
	<rect x="377" y="30" width="115" height="20" style="fill:rgb(115,100,79);"/>
	<rect x="492" y="30" width="116" height="20" style="fill:rgb(84,62,45);"/>
	<rect x="608" y="30" width="32" height="20" style="fill:rgb(10,6,2);"/>
	<rect x="0" y="60" width="52" height="20" style="fill:rgb(41,39,20);"/>
	<rect x="52" y="60" width="101" height="20" style="fill:rgb(29,27,16);"/>
	<rect x="153" y="60" width="115" height="20" style="fill:rgb(51,30,9);"/>
	<rect x="268" y="60" width="116" height="20" style="fill:rgb(43,13,2);"/>
	<rect x="384" y="60" width="84" height="20" style="fill:rgb(85,68,52);"/>
	<rect x="468" y="60" width="101" height="20" style="fill:rgb(119,92,66);"/>
	<rect x="569" y="60" width="71" height="20" style="fill:rgb(25,19,8);"/>
	<rect x="0" y="90" width="44" height="20" style="fill:rgb(52,41,15);"/>
	<rect x="44" y="90" width="116" height="20" style="fill:rgb(39,31,18);"/>
	<rect x="160" y="90" width="84" height="20" style="fill:rgb(48,28,8);"/>
	<rect x="244" y="90" width="101" height="20" style="fill:rgb(78,55,29);"/>
	<rect x="345" y="90" width="115" height="20" style="fill:rgb(55,45,30);"/>
	<rect x="460" y="90" width="116" height="20" style="fill:rgb(77,56,37);"/>
	<rect x="576" y="90" width="64" height="20" style="fill:rgb(39,28,12);"/>
	<rect x="0" y="120" width="20" height="20" style="fill:rgb(81,64,28);"/>
	<rect x="20" y="120" width="101" height="20" style="fill:rgb(39,27,11);"/>
	<rect x="121" y="120" width="115" height="20" style="fill:rgb(44,30,11);"/>
	<rect x="236" y="120" width="116" height="20" style="fill:rgb(32,21,5);"/>
	<rect x="352" y="120" width="84" height="20" style="fill:rgb(90,74,57);"/>
	<rect x="436" y="120" width="101" height="20" style="fill:rgb(101,74,51);"/>
	<rect x="537" y="120" width="103" height="20" style="fill:rgb(43,28,13);"/>
	<rect x="0" y="150" width="12" height="20" style="fill:rgb(93,74,32);"/>
	<rect x="12" y="150" width="116" height="20" style="fill:rgb(55,40,17);"/>
	<rect x="128" y="150" width="84" height="20" style="fill:rgb(58,40,16);"/>
	<rect x="212" y="150" width="101" height="20" style="fill:rgb(28,19,5);"/>
	<rect x="313" y="150" width="115" height="20" style="fill:rgb(74,51,30);"/>
	<rect x="428" y="150" width="116" height="20" style="fill:rgb(109,71,46);"/>
	<rect x="544" y="150" width="84" height="20" style="fill:rgb(58,32,13);"/>
	<rect x="628" y="150" width="12" height="20" style="fill:rgb(10,8,1);"/>
	<rect x="0" y="180" width="89" height="20" style="fill:rgb(75,56,25);"/>
	<rect x="89" y="180" width="115" height="20" style="fill:rgb(92,69,35);"/>
	<rect x="204" y="180" width="116" height="20" style="fill:rgb(26,19,6);"/>
	<rect x="320" y="180" width="84" height="20" style="fill:rgb(69,46,18);"/>
	<rect x="404" y="180" width="101" height="20" style="fill:rgb(133,95,70);"/>
	<rect x="505" y="180" width="115" height="20" style="fill:rgb(72,38,18);"/>
	<rect x="620" y="180" width="20" height="20" style="fill:rgb(28,14,1);"/>
	<rect x="0" y="210" width="96" height="20" style="fill:rgb(35,33,14);"/>
	<rect x="96" y="210" width="84" height="20" style="fill:rgb(34,31,13);"/>
	<rect x="180" y="210" width="101" height="20" style="fill:rgb(15,14,4);"/>
	<rect x="281" y="210" width="115" height="20" style="fill:rgb(32,24,5);"/>
	<rect x="396" y="210" width="116" height="20" style="fill:rgb(109,78,54);"/>
	<rect x="512" y="210" width="84" height="20" style="fill:rgb(67,36,12);"/>
	<rect x="596" y="210" width="44" height="20" style="fill:rgb(32,17,5);"/>
	<rect x="0" y="240" width="57" height="20" style="fill:rgb(27,30,13);"/>
	<rect x="57" y="240" width="115" height="20" style="fill:rgb(28,29,13);"/>
	<rect x="172" y="240" width="116" height="20" style="fill:rgb(38,27,10);"/>
	<rect x="288" y="240" width="84" height="20" style="fill:rgb(21,19,4);"/>
	<rect x="372" y="240" width="101" height="20" style="fill:rgb(93,65,41);"/>
	<rect x="473" y="240" width="115" height="20" style="fill:rgb(66,34,11);"/>
	<rect x="588" y="240" width="52" height="20" style="fill:rgb(13,8,1);"/>
	<rect x="0" y="270" width="64" height="20" style="fill:rgb(29,36,18);"/>
	<rect x="64" y="270" width="84" height="20" style="fill:rgb(32,36,22);"/>
	<rect x="148" y="270" width="101" height="20" style="fill:rgb(44,33,17);"/>
	<rect x="249" y="270" width="115" height="20" style="fill:rgb(42,33,13);"/>
	<rect x="364" y="270" width="116" height="20" style="fill:rgb(111,82,55);"/>
	<rect x="480" y="270" width="84" height="20" style="fill:rgb(61,30,10);"/>
	<rect x="564" y="270" width="76" height="20" style="fill:rgb(35,29,19);"/>
	<rect x="0" y="300" width="25" height="20" style="fill:rgb(35,42,27);"/>
	<rect x="25" y="300" width="115" height="20" style="fill:rgb(32,40,26);"/>
	<rect x="140" y="300" width="116" height="20" style="fill:rgb(39,36,25);"/>
	<rect x="256" y="300" width="84" height="20" style="fill:rgb(56,45,25);"/>
	<rect x="340" y="300" width="101" height="20" style="fill:rgb(106,77,49);"/>
	<rect x="441" y="300" width="115" height="20" style="fill:rgb(112,83,59);"/>
	<rect x="556" y="300" width="84" height="20" style="fill:rgb(66,58,43);"/>
	<rect x="0" y="330" width="32" height="20" style="fill:rgb(22,31,18);"/>
	<rect x="32" y="330" width="84" height="20" style="fill:rgb(23,33,21);"/>
	<rect x="116" y="330" width="101" height="20" style="fill:rgb(78,50,37);"/>
	<rect x="217" y="330" width="115" height="20" style="fill:rgb(212,83,69);"/>
	<rect x="332" y="330" width="116" height="20" style="fill:rgb(195,131,100);"/>
	<rect x="448" y="330" width="84" height="20" style="fill:rgb(99,66,39);"/>
	<rect x="532" y="330" width="101" height="20" style="fill:rgb(39,29,15);"/>
	<rect x="633" y="330" width="7" height="20" style="fill:rgb(14,14,4);"/>
	<rect x="0" y="360" width="108" height="20" style="fill:rgb(96,80,52);"/>
	<rect x="108" y="360" width="116" height="20" style="fill:rgb(194,102,88);"/>
	<rect x="224" y="360" width="84" height="20" style="fill:rgb(227,90,74);"/>
	<rect x="308" y="360" width="101" height="20" style="fill:rgb(213,121,97);"/>
	<rect x="409" y="360" width="115" height="20" style="fill:rgb(146,116,84);"/>
	<rect x="524" y="360" width="116" height="20" style="fill:rgb(36,29,17);"/>
	<rect x="0" y="390" width="84" height="20" style="fill:rgb(110,51,24);"/>
	<rect x="84" y="390" width="101" height="20" style="fill:rgb(180,107,89);"/>
	<rect x="185" y="390" width="115" height="20" style="fill:rgb(232,80,74);"/>
	<rect x="300" y="390" width="116" height="20" style="fill:rgb(184,68,52);"/>
	<rect x="416" y="390" width="84" height="20" style="fill:rgb(156,123,86);"/>
	<rect x="500" y="390" width="101" height="20" style="fill:rgb(57,35,15);"/>
	<rect x="601" y="390" width="39" height="20" style="fill:rgb(36,35,27);"/>
	<rect x="0" y="420" width="76" height="20" style="fill:rgb(88,30,11);"/>
	<rect x="76" y="420" width="116" height="20" style="fill:rgb(182,92,84);"/>
	<rect x="192" y="420" width="84" height="20" style="fill:rgb(186,47,40);"/>
	<rect x="276" y="420" width="101" height="20" style="fill:rgb(154,47,34);"/>
	<rect x="377" y="420" width="115" height="20" style="fill:rgb(162,131,95);"/>
	<rect x="492" y="420" width="116" height="20" style="fill:rgb(57,35,15);"/>
	<rect x="608" y="420" width="32" height="20" style="fill:rgb(107,106,92);"/>
	<rect x="0" y="450" width="52" height="20" style="fill:rgb(120,59,31);"/>
	<rect x="52" y="450" width="101" height="20" style="fill:rgb(190,106,92);"/>
	<rect x="153" y="450" width="115" height="20" style="fill:rgb(174,47,43);"/>
	<rect x="268" y="450" width="116" height="20" style="fill:rgb(153,69,52);"/>
	<rect x="384" y="450" width="84" height="20" style="fill:rgb(140,107,71);"/>
	<rect x="468" y="450" width="101" height="20" style="fill:rgb(70,43,18);"/>
	<rect x="569" y="450" width="71" height="20" style="fill:rgb(55,51,38);"/>
</svg>