<?xml version="1.0" encoding="iso-8859-1" standalone="no"?>
<!DOCTYPE svg PUBLIC "-//W3C//DTD SVG 1.0//EN" "http://www.w3.org/TR/SVG/DTD/svg10.dtd"><svg width="640px" height="480px" xmlns="http://www.w3.org/2000/svg">
	<rect x="0" y="0" width="84" height="20" style="fill:rgb(236,236,235);"/>
	<rect x="84" y="0" width="101" height="20" style="fill:rgb(236,235,235);"/>
	<rect x="185" y="0" width="115" height="20" style="fill:rgb(236,235,236);"/>
	<rect x="300" y="0" width="116" height="20" style="fill:rgb(236,236,236);"/>
	<rect x="416" y="0" width="84" height="20" style="fill:rgb(236,236,236);"/>
	<rect x="500" y="0" width="101" height="20" style="fill:rgb(196,202,210);"/>
	<rect x="601" y="0" width="39" height="20" style="fill:rgb(238,238,239);"/>
	<rect x="0" y="30" width="76" height="20" style="fill:rgb(194,199,208);"/>
	<rect x="76" y="30" width="116" height="20" style="fill:rgb(173,181,195);"/>
	<rect x="192" y="30" width="84" height="20" style="fill:rgb(166,174,190);"/>
	<rect x="276" y="30" width="101" height="20" style="fill:rgb(195,200,209);"/>
	<rect x="377" y="30" width="115" height="20" style="fill:rgb(236,236,236);"/>
	<rect x="492" y="30" width="116" height="20" style="fill:rgb(232,218,210);"/>
	<rect x="608" y="30" width="32" height="20" style="fill:rgb(242,242,242);"/>
	<rect x="0" y="60" width="52" height="20" style="fill:rgb(224,225,228);"/>
	<rect x="52" y="60" width="101" height="20" style="fill:rgb(200,204,212);"/>
	<rect x="153" y="60" width="115" height="20" style="fill:rgb(217,219,224);"/>
	<rect x="268" y="60" width="116" height="20" style="fill:rgb(236,236,236);"/>
	<rect x="384" y="60" width="84" height="20" style="fill:rgb(236,236,236);"/>
	<rect x="468" y="60" width="101" height="20" style="fill:rgb(236,236,236);"/>
	<rect x="569" y="60" width="71" height="20" style="fill:rgb(237,237,237);"/>
	<rect x="0" y="90" width="44" height="20" style="fill:rgb(254,254,254);"/>
	<rect x="44" y="90" width="116" height="20" style="fill:rgb(254,254,254);"/>
	<rect x="160" y="90" width="84" height="20" style="fill:rgb(254,254,254);"/>
	<rect x="244" y="90" width="101" height="20" style="fill:rgb(254,254,254);"/>
	<rect x="345" y="90" width="115" height="20" style="fill:rgb(254,254,254);"/>
	<rect x="460" y="90" width="116" height="20" style="fill:rgb(254,254,254);"/>
	<rect x="576" y="90" width="64" height="20" style="fill:rgb(254,254,254);"/>
	<rect x="0" y="120" width="20" height="20" style="fill:rgb(255,255,255);"/>
	<rect x="20" y="120" width="101" height="20" style="fill:rgb(204,209,217);"/>
	<rect x="121" y="120" width="115" height="20" style="fill:rgb(230,233,236);"/>
	<rect x="236" y="120" width="116" height="20" style="fill:rgb(152,166,185);"/>
	<rect x="352" y="120" width="84" height="20" style="fill:rgb(189,199,210);"/>
	<rect x="436" y="120" width="101" height="20" style="fill:rgb(255,255,255);"/>
	<rect x="537" y="120" width="103" height="20" style="fill:rgb(255,255,255);"/>
	<rect x="0" y="150" width="12" height="20" style="fill:rgb(255,255,255);"/>
	<rect x="12" y="150" width="116" height="20" style="fill:rgb(232,234,236);"/>
	<rect x="128" y="150" width="84" height="20" style="fill:rgb(248,249,249);"/>
	<rect x="212" y="150" width="101" height="20" style="fill:rgb(170,180,194);"/>
	<rect x="313" y="150" width="115" height="20" style="fill:rgb(225,229,234);"/>
	<rect x="428" y="150" width="116" height="20" style="fill:rgb(255,255,255);"/>
	<rect x="544" y="150" width="84" height="20" style="fill:rgb(255,255,255);"/>
	<rect x="628" y="150" width="12" height="20" style="fill:rgb(255,255,255);"/>
	<rect x="0" y="180" width="89" height="20" style="fill:rgb(231,233,235);"/>
	<rect x="89" y="180" width="115" height="20" style="fill:rgb(207,212,218);"/>
	<rect x="204" y="180" width="116" height="20" style="fill:rgb(177,188,202);"/>
	<rect x="320" y="180" width="84" height="20" style="fill:rgb(218,223,228);"/>
	<rect x="404" y="180" width="101" height="20" style="fill:rgb(255,255,255);"/>
	<rect x="505" y="180" width="115" height="20" style="fill:rgb(255,255,255);"/>
	<rect x="620" y="180" width="20" height="20" style="fill:rgb(255,255,255);"/>
	<rect x="0" y="210" width="96" height="20" style="fill:rgb(232,234,236);"/>
	<rect x="96" y="210" width="84" height="20" style="fill:rgb(230,233,236);"/>
	<rect x="180" y="210" width="101" height="20" style="fill:rgb(183,192,204);"/>
	<rect x="281" y="210" width="115" height="20" style="fill:rgb(215,222,228);"/>
	<rect x="396" y="210" width="116" height="20" style="fill:rgb(254,254,254);"/>
	<rect x="512" y="210" width="84" height="20" style="fill:rgb(254,255,255);"/>
	<rect x="596" y="210" width="44" height="20" style="fill:rgb(254,254,254);"/>
	<rect x="0" y="240" width="57" height="20" style="fill:rgb(240,242,244);"/>
	<rect x="57" y="240" width="115" height="20" style="fill:rgb(232,235,238);"/>
	<rect x="172" y="240" width="116" height="20" style="fill:rgb(240,242,243);"/>
	<rect x="288" y="240" width="84" height="20" style="fill:rgb(111,130,156);"/>
	<rect x="372" y="240" width="101" height="20" style="fill:rgb(194,203,214);"/>
	<rect x="473" y="240" width="115" height="20" style="fill:rgb(132,150,173);"/>
	<rect x="588" y="240" width="52" height="20" style="fill:rgb(219,224,231);"/>
	<rect x="0" y="270" width="64" height="20" style="fill:rgb(242,243,245);"/>
	<rect x="64" y="270" width="84" height="20" style="fill:rgb(205,211,218);"/>
	<rect x="148" y="270" width="101" height="20" style="fill:rgb(235,237,239);"/>
	<rect x="249" y="270" width="115" height="20" style="fill:rgb(184,194,205);"/>
	<rect x="364" y="270" width="116" height="20" style="fill:rgb(185,195,207);"/>
	<rect x="480" y="270" width="84" height="20" style="fill:rgb(216,222,229);"/>
	<rect x="564" y="270" width="76" height="20" style="fill:rgb(233,237,241);"/>
	<rect x="0" y="300" width="25" height="20" style="fill:rgb(255,255,255);"/>
	<rect x="25" y="300" width="115" height="20" style="fill:rgb(255,255,255);"/>
	<rect x="140" y="300" width="116" height="20" style="fill:rgb(242,243,245);"/>
	<rect x="256" y="300" width="84" height="20" style="fill:rgb(170,179,193);"/>
	<rect x="340" y="300" width="101" height="20" style="fill:rgb(218,220,224);"/>
	<rect x="441" y="300" width="115" height="20" style="fill:rgb(190,198,209);"/>
	<rect x="556" y="300" width="84" height="20" style="fill:rgb(232,236,240);"/>
	<rect x="0" y="330" width="32" height="20" style="fill:rgb(255,255,255);"/>
	<rect x="32" y="330" width="84" height="20" style="fill:rgb(255,255,255);"/>
	<rect x="116" y="330" width="101" height="20" style="fill:rgb(255,255,255);"/>
	<rect x="217" y="330" width="115" height="20" style="fill:rgb(189,197,206);"/>
	<rect x="332" y="330" width="116" height="20" style="fill:rgb(219,224,228);"/>
	<rect x="448" y="330" width="84" height="20" style="fill:rgb(187,198,210);"/>
	<rect x="532" y="330" width="101" height="20" style="fill:rgb(227,233,237);"/>
	<rect x="633" y="330" width="7" height="20" style="fill:rgb(255,255,255);"/>
	<rect x="0" y="360" width="108" height="20" style="fill:rgb(255,255,255);"/>
	<rect x="108" y="360" width="116" height="20" style="fill:rgb(255,255,255);"/>
	<rect x="224" y="360" width="84" height="20" style="fill:rgb(238,240,241);"/>
	<rect x="308" y="360" width="101" height="20" style="fill:rgb(234,236,238);"/>
	<rect x="409" y="360" width="115" height="20" style="fill:rgb(254,254,254);"/>
	<rect x="524" y="360" width="116" height="20" style="fill:rgb(254,254,254);"/>
	<rect x="0" y="390" width="84" height="20" style="fill:rgb(255,255,255);"/>
	<rect x="84" y="390" width="101" height="20" style="fill:rgb(255,255,255);"/>
	<rect x="185" y="390" width="115" height="20" style="fill:rgb(255,255,255);"/>
	<rect x="300" y="390" width="116" height="20" style="fill:rgb(255,255,255);"/>
	<rect x="416" y="390" width="84" height="20" style="fill:rgb(255,255,255);"/>
	<rect x="500" y="390" width="101" height="20" style="fill:rgb(255,255,255);"/>
	<rect x="601" y="390" width="39" height="20" style="fill:rgb(255,255,255);"/>
	<rect x="0" y="420" width="76" height="20" style="fill:rgb(255,255,255);"/>
	<rect x="76" y="420" width="116" height="20" style="fill:rgb(255,255,255);"/>
	<rect x="192" y="420" width="84" height="20" style="fill:rgb(255,255,255);"/>
	<rect x="276" y="420" width="101" height="20" style="fill:rgb(255,255,255);"/>
	<rect x="377" y="420" width="115" height="20" style="fill:rgb(255,255,255);"/>
	<rect x="492" y="420" width="116" height="20" style="fill:rgb(255,255,255);"/>
	<rect x="608" y="420" width="32" height="20" style="fill:rgb(255,255,255);"/>
	<rect x="0" y="450" width="52" height="20" style="fill:rgb(247,248,248);"/>
	<rect x="52" y="450" width="101" height="20" style="fill:rgb(238,240,242);"/>
	<rect x="153" y="450" width="115" height="20" style="fill:rgb(236,238,240);"/>
	<rect x="268" y="450" width="116" height="20" style="fill:rgb(253,253,253);"/>
	<rect x="384" y="450" width="84" height="20" style="fill:rgb(255,255,255);"/>
	<rect x="468" y="450" width="101" height="20" style="fill:rgb(255,255,255);"/>
	<rect x="569" y="450" width="71" height="20" style="fill:rgb(255,255,255);"/>
</svg>