<?xml version="1.0" encoding="iso-8859-1" standalone="no"?>
<!DOCTYPE svg PUBLIC "-//W3C//DTD SVG 1.0//EN" "http://www.w3.org/TR/SVG/DTD/svg10.dtd"><svg width="640px" height="480px" xmlns="http://www.w3.org/2000/svg">
	<rect x="0" y="0" width="114" height="20" style="fill:rgb(236,235,235);"/>
	<rect x="114" y="0" width="103" height="20" style="fill:rgb(236,235,236);"/>
	<rect x="217" y="0" width="100" height="20" style="fill:rgb(235,236,235);"/>
	<rect x="317" y="0" width="102" height="20" style="fill:rgb(236,236,236);"/>
	<rect x="419" y="0" width="103" height="20" style="fill:rgb(236,236,236);"/>
	<rect x="522" y="0" width="32" height="20" style="fill:rgb(224,225,227);"/>
	<rect x="554" y="0" width="86" height="20" style="fill:rgb(194,201,210);"/>
	<rect x="0" y="30" width="14" height="20" style="fill:rgb(236,236,236);"/>
	<rect x="14" y="30" width="102" height="20" style="fill:rgb(182,188,201);"/>
	<rect x="116" y="30" width="103" height="20" style="fill:rgb(172,179,194);"/>
	<rect x="219" y="30" width="32" height="20" style="fill:rgb(158,168,185);"/>
	<rect x="251" y="30" width="100" height="20" style="fill:rgb(200,204,212);"/>
	<rect x="351" y="30" width="102" height="20" style="fill:rgb(236,236,236);"/>
	<rect x="453" y="30" width="103" height="20" style="fill:rgb(235,233,232);"/>
	<rect x="556" y="30" width="84" height="20" style="fill:rgb(233,216,207);"/>
	<rect x="0" y="60" width="30" height="20" style="fill:rgb(235,236,235);"/>
	<rect x="30" y="60" width="103" height="20" style="fill:rgb(213,216,221);"/>
	<rect x="133" y="60" width="100" height="20" style="fill:rgb(236,236,236);"/>
	<rect x="233" y="60" width="102" height="20" style="fill:rgb(236,236,236);"/>
	<rect x="335" y="60" width="103" height="20" style="fill:rgb(236,236,236);"/>
	<rect x="438" y="60" width="32" height="20" style="fill:rgb(236,236,236);"/>
	<rect x="470" y="60" width="100" height="20" style="fill:rgb(236,236,236);"/>
	<rect x="570" y="60" width="70" height="20" style="fill:rgb(237,237,237);"/>
	<rect x="0" y="90" width="32" height="20" style="fill:rgb(254,254,254);"/>
	<rect x="32" y="90" width="103" height="20" style="fill:rgb(254,254,254);"/>
	<rect x="135" y="90" width="32" height="20" style="fill:rgb(254,254,254);"/>
	<rect x="167" y="90" width="100" height="20" style="fill:rgb(254,254,254);"/>
	<rect x="267" y="90" width="102" height="20" style="fill:rgb(252,245,239);"/>
	<rect x="369" y="90" width="103" height="20" style="fill:rgb(254,254,254);"/>
	<rect x="472" y="90" width="114" height="20" style="fill:rgb(254,254,254);"/>
	<rect x="586" y="90" width="54" height="20" style="fill:rgb(254,254,254);"/>
	<rect x="0" y="120" width="49" height="20" style="fill:rgb(225,206,189);"/>
	<rect x="49" y="120" width="100" height="20" style="fill:rgb(170,170,170);"/>
	<rect x="149" y="120" width="102" height="20" style="fill:rgb(133,133,133);"/>
	<rect x="251" y="120" width="103" height="20" style="fill:rgb(128,127,127);"/>
	<rect x="354" y="120" width="32" height="20" style="fill:rgb(128,128,128);"/>
	<rect x="386" y="120" width="100" height="20" style="fill:rgb(128,128,128);"/>
	<rect x="486" y="120" width="102" height="20" style="fill:rgb(163,163,163);"/>
	<rect x="588" y="120" width="52" height="20" style="fill:rgb(225,207,191);"/>
	<rect x="0" y="150" width="51" height="20" style="fill:rgb(227,227,227);"/>
	<rect x="51" y="150" width="32" height="20" style="fill:rgb(170,170,170);"/>
	<rect x="83" y="150" width="100" height="20" style="fill:rgb(150,150,150);"/>
	<rect x="183" y="150" width="102" height="20" style="fill:rgb(128,128,128);"/>
	<rect x="285" y="150" width="103" height="20" style="fill:rgb(128,128,128);"/>
	<rect x="388" y="150" width="114" height="20" style="fill:rgb(128,128,128);"/>
	<rect x="502" y="150" width="103" height="20" style="fill:rgb(172,172,172);"/>
	<rect x="605" y="150" width="35" height="20" style="fill:rgb(255,255,255);"/>
	<rect x="0" y="180" width="65" height="20" style="fill:rgb(214,214,214);"/>
	<rect x="65" y="180" width="102" height="20" style="fill:rgb(157,157,157);"/>
	<rect x="167" y="180" width="103" height="20" style="fill:rgb(128,128,128);"/>
	<rect x="270" y="180" width="32" height="20" style="fill:rgb(128,128,128);"/>
	<rect x="302" y="180" width="100" height="20" style="fill:rgb(128,128,128);"/>
	<rect x="402" y="180" width="102" height="20" style="fill:rgb(129,129,129);"/>
	<rect x="504" y="180" width="103" height="20" style="fill:rgb(174,174,174);"/>
	<rect x="607" y="180" width="32" height="20" style="fill:rgb(255,255,255);"/>
	<rect x="639" y="180" width="1" height="20" style="fill:rgb(255,255,255);"/>
	<rect x="0" y="210" width="99" height="20" style="fill:rgb(199,199,199);"/>
	<rect x="99" y="210" width="102" height="20" style="fill:rgb(143,143,143);"/>
	<rect x="201" y="210" width="103" height="20" style="fill:rgb(128,128,128);"/>
	<rect x="304" y="210" width="114" height="20" style="fill:rgb(128,128,128);"/>
	<rect x="418" y="210" width="103" height="20" style="fill:rgb(136,136,136);"/>
	<rect x="521" y="210" width="100" height="20" style="fill:rgb(186,186,186);"/>
	<rect x="621" y="210" width="19" height="20" style="fill:rgb(255,255,255);"/>
	<rect x="0" y="240" width="83" height="20" style="fill:rgb(205,205,205);"/>
	<rect x="83" y="240" width="103" height="20" style="fill:rgb(149,149,149);"/>
	<rect x="186" y="240" width="32" height="20" style="fill:rgb(128,128,128);"/>
	<rect x="218" y="240" width="100" height="20" style="fill:rgb(128,128,128);"/>
	<rect x="318" y="240" width="102" height="20" style="fill:rgb(128,128,128);"/>
	<rect x="420" y="240" width="103" height="20" style="fill:rgb(136,136,136);"/>
	<rect x="523" y="240" width="32" height="20" style="fill:rgb(170,170,170);"/>
	<rect x="555" y="240" width="85" height="20" style="fill:rgb(207,207,207);"/>
	<rect x="0" y="270" width="15" height="20" style="fill:rgb(255,255,255);"/>
	<rect x="15" y="270" width="102" height="20" style="fill:rgb(186,186,186);"/>
	<rect x="117" y="270" width="103" height="20" style="fill:rgb(135,135,135);"/>
	<rect x="220" y="270" width="114" height="20" style="fill:rgb(128,128,128);"/>
	<rect x="334" y="270" width="103" height="20" style="fill:rgb(128,128,128);"/>
	<rect x="437" y="270" width="100" height="20" style="fill:rgb(143,143,143);"/>
	<rect x="537" y="270" width="102" height="20" style="fill:rgb(200,200,200);"/>
	<rect x="639" y="270" width="1" height="20" style="fill:rgb(255,255,255);"/>
	<rect x="0" y="300" width="102" height="20" style="fill:rgb(198,198,198);"/>
	<rect x="102" y="300" width="32" height="20" style="fill:rgb(170,170,170);"/>
	<rect x="134" y="300" width="100" height="20" style="fill:rgb(129,129,129);"/>
	<rect x="234" y="300" width="102" height="20" style="fill:rgb(128,128,128);"/>
	<rect x="336" y="300" width="103" height="20" style="fill:rgb(128,128,128);"/>
	<rect x="439" y="300" width="32" height="20" style="fill:rgb(128,128,128);"/>
	<rect x="471" y="300" width="100" height="20" style="fill:rgb(157,157,157);"/>
	<rect x="571" y="300" width="69" height="20" style="fill:rgb(216,216,216);"/>
	<rect x="0" y="330" width="33" height="20" style="fill:rgb(254,254,254);"/>
	<rect x="33" y="330" width="103" height="20" style="fill:rgb(171,171,171);"/>
	<rect x="136" y="330" width="114" height="20" style="fill:rgb(128,128,128);"/>
	<rect x="250" y="330" width="103" height="20" style="fill:rgb(128,128,128);"/>
	<rect x="353" y="330" width="100" height="20" style="fill:rgb(128,128,128);"/>
	<rect x="453" y="330" width="102" height="20" style="fill:rgb(150,150,150);"/>
	<rect x="555" y="330" width="85" height="20" style="fill:rgb(207,207,207);"/>
	<rect x="0" y="360" width="18" height="20" style="fill:rgb(255,255,255);"/>
	<rect x="18" y="360" width="32" height="20" style="fill:rgb(232,232,232);"/>
	<rect x="50" y="360" width="100" height="20" style="fill:rgb(195,195,195);"/>
	<rect x="150" y="360" width="102" height="20" style="fill:rgb(128,128,128);"/>
	<rect x="252" y="360" width="103" height="20" style="fill:rgb(128,128,128);"/>
	<rect x="355" y="360" width="32" height="20" style="fill:rgb(128,128,128);"/>
	<rect x="387" y="360" width="100" height="20" style="fill:rgb(128,128,128);"/>
	<rect x="487" y="360" width="102" height="20" style="fill:rgb(195,195,195);"/>
	<rect x="589" y="360" width="51" height="20" style="fill:rgb(242,242,242);"/>
	<rect x="0" y="390" width="52" height="20" style="fill:rgb(255,255,255);"/>
	<rect x="52" y="390" width="114" height="20" style="fill:rgb(221,221,221);"/>
	<rect x="166" y="390" width="103" height="20" style="fill:rgb(128,128,128);"/>
	<rect x="269" y="390" width="100" height="20" style="fill:rgb(128,128,128);"/>
	<rect x="369" y="390" width="102" height="20" style="fill:rgb(128,128,128);"/>
	<rect x="471" y="390" width="103" height="20" style="fill:rgb(217,217,217);"/>
	<rect x="574" y="390" width="32" height="20" style="fill:rgb(255,255,255);"/>
	<rect x="606" y="390" width="34" height="20" style="fill:rgb(255,255,255);"/>
	<rect x="0" y="420" width="66" height="20" style="fill:rgb(255,255,255);"/>
	<rect x="66" y="420" width="102" height="20" style="fill:rgb(252,252,252);"/>
	<rect x="168" y="420" width="103" height="20" style="fill:rgb(247,247,247);"/>
	<rect x="271" y="420" width="32" height="20" style="fill:rgb(247,247,247);"/>
	<rect x="303" y="420" width="100" height="20" style="fill:rgb(247,247,247);"/>
	<rect x="403" y="420" width="102" height="20" style="fill:rgb(247,247,247);"/>
	<rect x="505" y="420" width="103" height="20" style="fill:rgb(255,255,255);"/>
	<rect x="608" y="420" width="32" height="20" style="fill:rgb(255,255,255);"/>
	<rect x="0" y="450" width="82" height="20" style="fill:rgb(246,247,247);"/>
	<rect x="82" y="450" width="103" height="20" style="fill:rgb(237,239,241);"/>
	<rect x="185" y="450" width="100" height="20" style="fill:rgb(236,238,240);"/>
	<rect x="285" y="450" width="102" height="20" style="fill:rgb(255,255,255);"/>
	<rect x="387" y="450" width="103" height="20" style="fill:rgb(255,255,255);"/>
	<rect x="490" y="450" width="32" height="20" style="fill:rgb(255,255,255);"/>
	<rect x="522" y="450" width="100" height="20" style="fill:rgb(255,255,255);"/>
	<rect x="622" y="450" width="18" height="20" style="fill:rgb(255,255,255);"/>
</svg>