<svg width="640px" height="648px" xmlns="http://www.w3.org/2000/svg">
	<rect x="0" y="0" width="66" height="20" style="fill:rgb(67,112,170);"/>
	<rect x="66" y="0" width="108" height="20" style="fill:rgb(61,109,175);"/>
	<rect x="174" y="0" width="97" height="20" style="fill:rgb(60,109,178);"/>
	<rect x="271" y="0" width="97" height="20" style="fill:rgb(67,117,187);"/>
	<rect x="368" y="0" width="108" height="20" style="fill:rgb(76,130,202);"/>
	<rect x="476" y="0" width="115" height="20" style="fill:rgb(88,145,215);"/>
	<rect x="591" y="0" width="49" height="20" style="fill:rgb(97,154,221);"/>
	<rect x="0" y="30" width="58" height="20" style="fill:rgb(72,117,176);"/>
	<rect x="58" y="30" width="100" height="20" style="fill:rgb(70,116,180);"/>
	<rect x="158" y="30" width="32" height="20" style="fill:rgb(69,119,183);"/>
	<rect x="190" y="30" width="107" height="20" style="fill:rgb(72,121,190);"/>
	<rect x="297" y="30" width="97" height="20" style="fill:rgb(82,131,200);"/>
	<rect x="394" y="30" width="106" height="20" style="fill:rgb(92,145,213);"/>
	<rect x="500" y="30" width="115" height="20" style="fill:rgb(104,160,223);"/>
	<rect x="615" y="30" width="25" height="20" style="fill:rgb(110,157,199);"/>
	<rect x="0" y="60" width="75" height="20" style="fill:rgb(85,130,189);"/>
	<rect x="75" y="60" width="104" height="20" style="fill:rgb(84,130,191);"/>
	<rect x="179" y="60" width="107" height="20" style="fill:rgb(88,135,197);"/>
	<rect x="286" y="60" width="97" height="20" style="fill:rgb(95,144,207);"/>
	<rect x="383" y="60" width="115" height="20" style="fill:rgb(107,158,216);"/>
	<rect x="498" y="60" width="108" height="20" style="fill:rgb(118,147,137);"/>
	<rect x="606" y="60" width="34" height="20" style="fill:rgb(119,132,79);"/>
	<rect x="0" y="90" width="83" height="20" style="fill:rgb(102,143,200);"/>
	<rect x="83" y="90" width="32" height="20" style="fill:rgb(123,159,211);"/>
	<rect x="115" y="90" width="97" height="20" style="fill:rgb(157,185,223);"/>
	<rect x="212" y="90" width="108" height="20" style="fill:rgb(119,162,215);"/>
	<rect x="320" y="90" width="105" height="20" style="fill:rgb(117,166,220);"/>
	<rect x="425" y="90" width="115" height="20" style="fill:rgb(110,127,95);"/>
	<rect x="540" y="90" width="100" height="20" style="fill:rgb(93,108,57);"/>
	<rect x="0" y="120" width="17" height="20" style="fill:rgb(122,159,209);"/>
	<rect x="17" y="120" width="100" height="20" style="fill:rgb(117,158,211);"/>
	<rect x="117" y="120" width="108" height="20" style="fill:rgb(131,169,218);"/>
	<rect x="225" y="120" width="32" height="20" style="fill:rgb(148,181,225);"/>
	<rect x="257" y="120" width="105" height="20" style="fill:rgb(156,184,214);"/>
	<rect x="362" y="120" width="97" height="20" style="fill:rgb(100,119,78);"/>
	<rect x="459" y="120" width="115" height="20" style="fill:rgb(122,132,61);"/>
	<rect x="574" y="120" width="66" height="20" style="fill:rgb(83,97,51);"/>
	<rect x="0" y="150" width="34" height="20" style="fill:rgb(143,175,218);"/>
	<rect x="34" y="150" width="108" height="20" style="fill:rgb(138,172,217);"/>
	<rect x="142" y="150" width="105" height="20" style="fill:rgb(145,179,224);"/>
	<rect x="247" y="150" width="97" height="20" style="fill:rgb(150,174,180);"/>
	<rect x="344" y="150" width="106" height="20" style="fill:rgb(106,119,63);"/>
	<rect x="450" y="150" width="115" height="20" style="fill:rgb(103,115,52);"/>
	<rect x="565" y="150" width="75" height="20" style="fill:rgb(92,104,59);"/>
	<rect x="0" y="180" width="33" height="20" style="fill:rgb(165,188,222);"/>
	<rect x="33" y="180" width="32" height="20" style="fill:rgb(162,186,221);"/>
	<rect x="65" y="180" width="100" height="20" style="fill:rgb(160,186,223);"/>
	<rect x="165" y="180" width="108" height="20" style="fill:rgb(169,194,225);"/>
	<rect x="273" y="180" width="32" height="20" style="fill:rgb(168,187,192);"/>
	<rect x="305" y="180" width="106" height="20" style="fill:rgb(103,119,65);"/>
	<rect x="411" y="180" width="97" height="20" style="fill:rgb(104,117,57);"/>
	<rect x="508" y="180" width="32" height="20" style="fill:rgb(127,139,56);"/>
	<rect x="540" y="180" width="100" height="20" style="fill:rgb(101,113,59);"/>
	<rect x="0" y="210" width="8" height="20" style="fill:rgb(135,160,195);"/>
	<rect x="8" y="210" width="115" height="20" style="fill:rgb(131,158,194);"/>
	<rect x="123" y="210" width="107" height="20" style="fill:rgb(135,162,190);"/>
	<rect x="230" y="210" width="100" height="20" style="fill:rgb(119,139,112);"/>
	<rect x="330" y="210" width="106" height="20" style="fill:rgb(111,130,76);"/>
	<rect x="436" y="210" width="32" height="20" style="fill:rgb(98,119,69);"/>
	<rect x="468" y="210" width="66" height="20" style="fill:rgb(113,130,69);"/>
	<rect x="534" y="210" width="106" height="20" style="fill:rgb(99,117,68);"/>
	<rect x="0" y="240" width="2" height="20" style="fill:rgb(126,154,190);"/>
	<rect x="2" y="240" width="97" height="20" style="fill:rgb(125,153,191);"/>
	<rect x="99" y="240" width="97" height="20" style="fill:rgb(136,163,197);"/>
	<rect x="196" y="240" width="108" height="20" style="fill:rgb(148,172,198);"/>
	<rect x="304" y="240" width="115" height="20" style="fill:rgb(104,120,70);"/>
	<rect x="419" y="240" width="107" height="20" style="fill:rgb(106,119,74);"/>
	<rect x="526" y="240" width="100" height="20" style="fill:rgb(119,128,100);"/>
	<rect x="626" y="240" width="14" height="20" style="fill:rgb(119,124,102);"/>
	<rect x="0" y="270" width="18" height="20" style="fill:rgb(124,152,188);"/>
	<rect x="18" y="270" width="107" height="20" style="fill:rgb(120,148,185);"/>
	<rect x="125" y="270" width="97" height="20" style="fill:rgb(127,156,192);"/>
	<rect x="222" y="270" width="106" height="20" style="fill:rgb(138,161,174);"/>
	<rect x="328" y="270" width="115" height="20" style="fill:rgb(97,109,61);"/>
	<rect x="443" y="270" width="100" height="20" style="fill:rgb(98,108,58);"/>
	<rect x="543" y="270" width="97" height="20" style="fill:rgb(90,102,61);"/>
	<rect x="0" y="300" width="7" height="20" style="fill:rgb(101,134,169);"/>
	<rect x="7" y="300" width="107" height="20" style="fill:rgb(100,133,168);"/>
	<rect x="114" y="300" width="97" height="20" style="fill:rgb(120,147,180);"/>
	<rect x="211" y="300" width="115" height="20" style="fill:rgb(134,157,185);"/>
	<rect x="326" y="300" width="108" height="20" style="fill:rgb(153,162,154);"/>
	<rect x="434" y="300" width="117" height="20" style="fill:rgb(112,122,83);"/>
	<rect x="551" y="300" width="32" height="20" style="fill:rgb(82,94,48);"/>
	<rect x="583" y="300" width="57" height="20" style="fill:rgb(80,92,49);"/>
	<rect x="0" y="330" width="40" height="20" style="fill:rgb(80,113,147);"/>
	<rect x="40" y="330" width="108" height="20" style="fill:rgb(93,122,152);"/>
	<rect x="148" y="330" width="105" height="20" style="fill:rgb(104,131,162);"/>
	<rect x="253" y="330" width="115" height="20" style="fill:rgb(128,151,180);"/>
	<rect x="368" y="330" width="117" height="20" style="fill:rgb(175,181,187);"/>
	<rect x="485" y="330" width="100" height="20" style="fill:rgb(93,104,59);"/>
	<rect x="585" y="330" width="55" height="20" style="fill:rgb(73,83,43);"/>
	<rect x="0" y="360" width="53" height="20" style="fill:rgb(54,87,121);"/>
	<rect x="53" y="360" width="32" height="20" style="fill:rgb(55,88,119);"/>
	<rect x="85" y="360" width="105" height="20" style="fill:rgb(85,97,106);"/>
	<rect x="190" y="360" width="97" height="20" style="fill:rgb(62,91,122);"/>
	<rect x="287" y="360" width="115" height="20" style="fill:rgb(156,161,161);"/>
	<rect x="402" y="360" width="100" height="20" style="fill:rgb(126,137,148);"/>
	<rect x="502" y="360" width="108" height="20" style="fill:rgb(76,87,52);"/>
	<rect x="610" y="360" width="30" height="20" style="fill:rgb(72,81,41);"/>
	<rect x="0" y="390" width="75" height="20" style="fill:rgb(37,66,97);"/>
	<rect x="75" y="390" width="97" height="20" style="fill:rgb(73,75,66);"/>
	<rect x="172" y="390" width="106" height="20" style="fill:rgb(32,35,36);"/>
	<rect x="278" y="390" width="115" height="20" style="fill:rgb(133,129,118);"/>
	<rect x="393" y="390" width="108" height="20" style="fill:rgb(122,125,129);"/>
	<rect x="501" y="390" width="32" height="20" style="fill:rgb(39,62,81);"/>
	<rect x="533" y="390" width="100" height="20" style="fill:rgb(80,101,89);"/>
	<rect x="633" y="390" width="7" height="20" style="fill:rgb(61,74,43);"/>
	<rect x="0" y="420" width="101" height="20" style="fill:rgb(29,44,62);"/>
	<rect x="101" y="420" width="32" height="20" style="fill:rgb(36,37,32);"/>
	<rect x="133" y="420" width="106" height="20" style="fill:rgb(42,43,36);"/>
	<rect x="239" y="420" width="97" height="20" style="fill:rgb(91,90,80);"/>
	<rect x="336" y="420" width="32" height="20" style="fill:rgb(168,158,145);"/>
	<rect x="368" y="420" width="108" height="20" style="fill:rgb(139,133,123);"/>
	<rect x="476" y="420" width="115" height="20" style="fill:rgb(20,35,48);"/>
	<rect x="591" y="420" width="49" height="20" style="fill:rgb(46,81,107);"/>
	<rect x="0" y="450" width="58" height="20" style="fill:rgb(20,27,36);"/>
	<rect x="58" y="450" width="100" height="20" style="fill:rgb(38,41,40);"/>
	<rect x="158" y="450" width="106" height="20" style="fill:rgb(54,56,51);"/>
	<rect x="264" y="450" width="32" height="20" style="fill:rgb(51,54,45);"/>
	<rect x="296" y="450" width="66" height="20" style="fill:rgb(150,141,124);"/>
	<rect x="362" y="450" width="108" height="20" style="fill:rgb(82,86,81);"/>
	<rect x="470" y="450" width="97" height="20" style="fill:rgb(14,19,23);"/>
	<rect x="567" y="450" width="73" height="20" style="fill:rgb(14,20,27);"/>
	<rect x="0" y="480" width="24" height="20" style="fill:rgb(14,23,32);"/>
	<rect x="24" y="480" width="108" height="20" style="fill:rgb(22,27,30);"/>
	<rect x="132" y="480" width="115" height="20" style="fill:rgb(31,35,35);"/>
	<rect x="247" y="480" width="107" height="20" style="fill:rgb(92,93,85);"/>
	<rect x="354" y="480" width="100" height="20" style="fill:rgb(62,57,50);"/>
	<rect x="454" y="480" width="32" height="20" style="fill:rgb(5,5,6);"/>
	<rect x="486" y="480" width="107" height="20" style="fill:rgb(10,12,15);"/>
	<rect x="593" y="480" width="47" height="20" style="fill:rgb(108,111,103);"/>
	<rect x="0" y="510" width="50" height="20" style="fill:rgb(26,37,49);"/>
	<rect x="50" y="510" width="106" height="20" style="fill:rgb(22,31,43);"/>
	<rect x="156" y="510" width="115" height="20" style="fill:rgb(31,36,39);"/>
	<rect x="271" y="510" width="100" height="20" style="fill:rgb(65,69,63);"/>
	<rect x="371" y="510" width="104" height="20" style="fill:rgb(28,29,26);"/>
	<rect x="475" y="510" width="107" height="20" style="fill:rgb(60,64,62);"/>
	<rect x="582" y="510" width="58" height="20" style="fill:rgb(111,112,105);"/>
	<rect x="0" y="540" width="39" height="20" style="fill:rgb(20,26,35);"/>
	<rect x="39" y="540" width="115" height="20" style="fill:rgb(18,23,29);"/>
	<rect x="154" y="540" width="108" height="20" style="fill:rgb(23,26,30);"/>
	<rect x="262" y="540" width="117" height="20" style="fill:rgb(43,44,41);"/>
	<rect x="379" y="540" width="32" height="20" style="fill:rgb(98,93,83);"/>
	<rect x="411" y="540" width="97" height="20" style="fill:rgb(89,90,81);"/>
	<rect x="508" y="540" width="108" height="20" style="fill:rgb(60,63,61);"/>
	<rect x="616" y="540" width="24" height="20" style="fill:rgb(130,130,119);"/>
	<rect x="0" y="570" width="81" height="20" style="fill:rgb(12,16,20);"/>
	<rect x="81" y="570" width="115" height="20" style="fill:rgb(16,18,20);"/>
	<rect x="196" y="570" width="117" height="20" style="fill:rgb(22,24,26);"/>
	<rect x="313" y="570" width="100" height="20" style="fill:rgb(41,40,34);"/>
	<rect x="413" y="570" width="108" height="20" style="fill:rgb(69,71,63);"/>
	<rect x="521" y="570" width="32" height="20" style="fill:rgb(44,47,45);"/>
	<rect x="553" y="570" width="87" height="20" style="fill:rgb(55,59,53);"/>
	<rect x="0" y="600" width="18" height="20" style="fill:rgb(7,10,12);"/>
	<rect x="18" y="600" width="97" height="20" style="fill:rgb(4,4,8);"/>
	<rect x="115" y="600" width="115" height="20" style="fill:rgb(20,20,20);"/>
	<rect x="230" y="600" width="100" height="20" style="fill:rgb(34,35,31);"/>
	<rect x="330" y="600" width="108" height="20" style="fill:rgb(48,50,42);"/>
	<rect x="438" y="600" width="105" height="20" style="fill:rgb(79,82,71);"/>
	<rect x="543" y="600" width="97" height="20" style="fill:rgb(69,73,66);"/>
</svg>